<svg width="14" height="14" viewBox="0 0 14 14" fill="none" xmlns="http://www.w3.org/2000/svg">
<path fill-rule="evenodd" clip-rule="evenodd" d="M13.0944 1.84755C13.3546 1.58734 13.3546 1.16545 13.0944 0.905233C12.8342 0.645019 12.4123 0.645019 12.1521 0.905233L7 6.05729L1.84794 0.905233C1.58772 0.645019 1.16583 0.645019 0.90562 0.905233C0.645406 1.16545 0.645406 1.58734 0.90562 1.84755L6.05768 6.99961L0.905224 12.1521C0.64501 12.4123 0.645009 12.8342 0.905223 13.0944C1.16544 13.3546 1.58733 13.3546 1.84754 13.0944L7 7.94193L12.1525 13.0944C12.4127 13.3546 12.8346 13.3546 13.0948 13.0944C13.355 12.8342 13.355 12.4123 13.0948 12.1521L7.94232 6.99961L13.0944 1.84755Z" fill="#FEFEFE"/>
</svg>
