<svg width="82" height="17" viewBox="0 0 82 17" fill="none" xmlns="http://www.w3.org/2000/svg">
<path d="M0.4 16V0.399999H2.752L5.68 10.936L8.584 0.399999H10.936V16H9.256V3.088L6.448 13.12H4.888L2.08 3.088V16H0.4ZM15.7281 16V0.399999H17.4081V16H15.7281ZM22.1969 0.399999H23.8769V14.56H28.2689V16H22.1969V0.399999ZM38.95 13C38.95 14.04 38.614 14.864 37.942 15.472C37.286 16.064 36.27 16.36 34.894 16.36C33.518 16.36 32.486 16.064 31.798 15.472C31.126 14.864 30.79 14.04 30.79 13V3.4C30.79 2.36 31.118 1.544 31.774 0.951999C32.446 0.343999 33.47 0.0399995 34.846 0.0399995C36.222 0.0399995 37.246 0.343999 37.918 0.951999C38.606 1.544 38.95 2.36 38.95 3.4V13ZM37.27 3.4C37.27 2.792 37.07 2.32 36.67 1.984C36.27 1.648 35.662 1.48 34.846 1.48C34.046 1.48 33.446 1.648 33.046 1.984C32.662 2.32 32.47 2.792 32.47 3.4V13C32.47 13.592 32.67 14.064 33.07 14.416C33.47 14.752 34.078 14.92 34.894 14.92C35.694 14.92 36.286 14.752 36.67 14.416C37.07 14.064 37.27 13.592 37.27 13V3.4ZM49.2644 11.68H50.9444V13C50.9444 14.04 50.6244 14.864 49.9844 15.472C49.3444 16.064 48.3524 16.36 47.0084 16.36C45.6644 16.36 44.6644 16.064 44.0084 15.472C43.3524 14.864 43.0244 14.04 43.0244 13V3.4C43.0244 2.36 43.3444 1.544 43.9844 0.951999C44.6244 0.343999 45.6164 0.0399995 46.9604 0.0399995C48.3044 0.0399995 49.3044 0.343999 49.9604 0.951999C50.6164 1.544 50.9444 2.36 50.9444 3.4V8.68H44.7044V13C44.7044 13.592 44.8884 14.064 45.2564 14.416C45.6404 14.752 46.2244 14.92 47.0084 14.92C47.7764 14.92 48.3444 14.752 48.7124 14.416C49.0804 14.064 49.2644 13.592 49.2644 13V11.68ZM44.7044 7.24H49.2644V3.4C49.2644 2.792 49.0724 2.32 48.6884 1.984C48.3204 1.648 47.7444 1.48 46.9604 1.48C46.1924 1.48 45.6244 1.648 45.2564 1.984C44.8884 2.32 44.7044 2.792 44.7044 3.4V7.24ZM55.3844 0.399999H57.0644V14.56H61.4564V16H55.3844V0.399999ZM65.6834 16V11.584C64.5794 11.456 63.7554 11.104 63.2114 10.528C62.6834 9.952 62.4194 9.2 62.4194 8.272V0.399999H64.0994V8.272C64.0994 8.864 64.2994 9.336 64.6994 9.688C65.0994 10.024 65.7074 10.192 66.5234 10.192C67.3234 10.192 67.9154 10.024 68.2994 9.688C68.6994 9.336 68.8994 8.864 68.8994 8.272V0.399999H70.5794V8.272C70.5794 9.2 70.3154 9.952 69.7874 10.528C69.2594 11.104 68.4514 11.456 67.3634 11.584V16H65.6834ZM81.2528 16L80.6288 14.464C80.3088 15.024 79.8768 15.48 79.3328 15.832C78.7888 16.184 78.1808 16.36 77.5088 16.36C76.6608 16.36 75.9808 16.216 75.4688 15.928C74.9568 15.624 74.5888 15.216 74.3648 14.704C74.1568 14.192 74.0528 13.624 74.0528 13V10.6C74.0528 9.96 74.1568 9.392 74.3648 8.896C74.5888 8.384 74.9568 7.984 75.4688 7.696C75.9808 7.392 76.6608 7.24 77.5088 7.24H80.2928V3.304C80.2928 2.744 80.1088 2.304 79.7408 1.984C79.3888 1.648 78.8448 1.48 78.1088 1.48C77.3888 1.48 76.8528 1.648 76.5008 1.984C76.1488 2.304 75.9728 2.744 75.9728 3.304V4.72H74.2928V3.4C74.2928 2.344 74.6048 1.52 75.2288 0.927999C75.8528 0.335999 76.8128 0.0399995 78.1088 0.0399995C79.4048 0.0399995 80.3728 0.335999 81.0128 0.927999C81.6528 1.52 81.9728 2.344 81.9728 3.4V16H81.2528ZM80.2928 8.68H77.5088C76.7888 8.68 76.3088 8.864 76.0688 9.232C75.8448 9.6 75.7328 10.056 75.7328 10.6V13C75.7328 13.544 75.8448 14 76.0688 14.368C76.3088 14.736 76.7888 14.92 77.5088 14.92C77.9888 14.92 78.4288 14.792 78.8288 14.536C79.2448 14.28 79.5888 13.976 79.8608 13.624C80.1328 13.256 80.2768 12.912 80.2928 12.592V8.68Z" fill="#FEFEFE"/>
</svg>
