<svg width="17" height="17" viewBox="0 0 17 17" fill="none" xmlns="http://www.w3.org/2000/svg">
<path fill-rule="evenodd" clip-rule="evenodd" d="M9.04524 1C9.04524 0.723858 8.82138 0.5 8.54524 0.5C8.2691 0.5 8.04524 0.723858 8.04524 1V8.04524H1C0.723858 8.04524 0.5 8.2691 0.5 8.54524C0.5 8.82138 0.723858 9.04524 1 9.04524H8.04524V16.0905C8.04524 16.3666 8.2691 16.5905 8.54524 16.5905C8.82138 16.5905 9.04524 16.3666 9.04524 16.0905V9.04524H16.0905C16.3666 9.04524 16.5905 8.82138 16.5905 8.54524C16.5905 8.2691 16.3666 8.04524 16.0905 8.04524H9.04524V1Z" fill="#FEFEFE"/>
</svg>
